<mxfile host="Electron" modified="2024-02-23T08:01:41.066Z" agent="Mozilla/5.0 (Windows NT 10.0; Win64; x64) AppleWebKit/537.36 (KHTML, like Gecko) draw.io/23.1.5 Chrome/120.0.6099.109 Electron/28.1.0 Safari/537.36" etag="lf7_s0-bHiHpu0FVBpDn" version="23.1.5" type="device">
  <diagram name="第 1 页" id="xcn0INq0858Ascm5nOGZ">
    <mxGraphModel dx="941" dy="644" grid="1" gridSize="10" guides="1" tooltips="1" connect="1" arrows="1" fold="1" page="1" pageScale="1" pageWidth="827" pageHeight="1169" math="0" shadow="0">
      <root>
        <mxCell id="0" />
        <mxCell id="1" parent="0" />
        <mxCell id="EdCFm5tl4cXeDCEJOOAf-1" value="预先申请的大块内存" style="rounded=0;whiteSpace=wrap;html=1;" parent="1" vertex="1">
          <mxGeometry x="70" y="130" width="670" height="60" as="geometry" />
        </mxCell>
        <mxCell id="EdCFm5tl4cXeDCEJOOAf-2" value="" style="endArrow=classic;html=1;rounded=0;exitX=0.5;exitY=1;exitDx=0;exitDy=0;" parent="1" source="EdCFm5tl4cXeDCEJOOAf-3" edge="1">
          <mxGeometry width="50" height="50" relative="1" as="geometry">
            <mxPoint x="70" y="90" as="sourcePoint" />
            <mxPoint x="70" y="130" as="targetPoint" />
          </mxGeometry>
        </mxCell>
        <mxCell id="EdCFm5tl4cXeDCEJOOAf-3" value="PTR" style="text;html=1;align=center;verticalAlign=middle;whiteSpace=wrap;rounded=0;" parent="1" vertex="1">
          <mxGeometry x="40" y="50" width="60" height="30" as="geometry" />
        </mxCell>
        <mxCell id="EdCFm5tl4cXeDCEJOOAf-6" value="分配出去的" style="rounded=1;whiteSpace=wrap;html=1;" parent="1" vertex="1">
          <mxGeometry x="70" y="300" width="120" height="60" as="geometry" />
        </mxCell>
        <mxCell id="EdCFm5tl4cXeDCEJOOAf-7" value="预先申请的大块内存" style="rounded=0;whiteSpace=wrap;html=1;" parent="1" vertex="1">
          <mxGeometry x="220" y="300" width="520" height="60" as="geometry" />
        </mxCell>
        <mxCell id="EdCFm5tl4cXeDCEJOOAf-9" value="" style="endArrow=classic;html=1;rounded=0;exitX=0.5;exitY=1;exitDx=0;exitDy=0;" parent="1" source="EdCFm5tl4cXeDCEJOOAf-10" edge="1">
          <mxGeometry width="50" height="50" relative="1" as="geometry">
            <mxPoint x="220" y="260" as="sourcePoint" />
            <mxPoint x="220" y="300" as="targetPoint" />
          </mxGeometry>
        </mxCell>
        <mxCell id="EdCFm5tl4cXeDCEJOOAf-10" value="PTR" style="text;html=1;align=center;verticalAlign=middle;whiteSpace=wrap;rounded=0;" parent="1" vertex="1">
          <mxGeometry x="190" y="220" width="60" height="30" as="geometry" />
        </mxCell>
        <mxCell id="EdCFm5tl4cXeDCEJOOAf-16" value="预先申请的大块内存" style="rounded=0;whiteSpace=wrap;html=1;" parent="1" vertex="1">
          <mxGeometry x="220" y="490" width="520" height="60" as="geometry" />
        </mxCell>
        <mxCell id="EdCFm5tl4cXeDCEJOOAf-18" value="直接使用这块空间的前4/8个字节来指向后续的被回收的空间" style="text;html=1;align=center;verticalAlign=middle;whiteSpace=wrap;rounded=0;" parent="1" vertex="1">
          <mxGeometry x="130" y="680" width="210" height="30" as="geometry" />
        </mxCell>
        <mxCell id="EdCFm5tl4cXeDCEJOOAf-19" value="被回收的" style="rounded=1;whiteSpace=wrap;html=1;" parent="1" vertex="1">
          <mxGeometry x="110" y="600" width="120" height="60" as="geometry" />
        </mxCell>
        <mxCell id="EdCFm5tl4cXeDCEJOOAf-20" value="被回收的" style="rounded=1;whiteSpace=wrap;html=1;" parent="1" vertex="1">
          <mxGeometry x="260" y="600" width="120" height="60" as="geometry" />
        </mxCell>
        <mxCell id="EdCFm5tl4cXeDCEJOOAf-21" value="NULLPTR" style="text;html=1;align=center;verticalAlign=middle;whiteSpace=wrap;rounded=0;" parent="1" vertex="1">
          <mxGeometry x="424" y="615" width="60" height="30" as="geometry" />
        </mxCell>
        <mxCell id="EdCFm5tl4cXeDCEJOOAf-22" value="" style="curved=1;endArrow=classic;html=1;rounded=0;exitX=0.25;exitY=1;exitDx=0;exitDy=0;entryX=0.367;entryY=1.083;entryDx=0;entryDy=0;entryPerimeter=0;" parent="1" target="EdCFm5tl4cXeDCEJOOAf-21" edge="1">
          <mxGeometry width="50" height="50" relative="1" as="geometry">
            <mxPoint x="290" y="660" as="sourcePoint" />
            <mxPoint x="420" y="660" as="targetPoint" />
            <Array as="points">
              <mxPoint x="370" y="690" />
            </Array>
          </mxGeometry>
        </mxCell>
        <mxCell id="EdCFm5tl4cXeDCEJOOAf-23" value="" style="curved=1;endArrow=classic;html=1;rounded=0;exitX=0.25;exitY=1;exitDx=0;exitDy=0;entryX=0;entryY=1;entryDx=0;entryDy=0;" parent="1" edge="1">
          <mxGeometry width="50" height="50" relative="1" as="geometry">
            <mxPoint x="140" y="660" as="sourcePoint" />
            <mxPoint x="270" y="660" as="targetPoint" />
            <Array as="points">
              <mxPoint x="220" y="690" />
            </Array>
          </mxGeometry>
        </mxCell>
        <mxCell id="EdCFm5tl4cXeDCEJOOAf-24" value="" style="endArrow=classic;html=1;rounded=0;exitX=0.5;exitY=1;exitDx=0;exitDy=0;" parent="1" source="EdCFm5tl4cXeDCEJOOAf-25" edge="1">
          <mxGeometry width="50" height="50" relative="1" as="geometry">
            <mxPoint x="110" y="560" as="sourcePoint" />
            <mxPoint x="110" y="600" as="targetPoint" />
          </mxGeometry>
        </mxCell>
        <mxCell id="EdCFm5tl4cXeDCEJOOAf-25" value="FREELIST" style="text;html=1;align=center;verticalAlign=middle;whiteSpace=wrap;rounded=0;" parent="1" vertex="1">
          <mxGeometry x="80" y="520" width="60" height="30" as="geometry" />
        </mxCell>
        <mxCell id="EdCFm5tl4cXeDCEJOOAf-27" value="" style="endArrow=classic;html=1;rounded=0;exitX=0.5;exitY=1;exitDx=0;exitDy=0;" parent="1" source="EdCFm5tl4cXeDCEJOOAf-28" edge="1">
          <mxGeometry width="50" height="50" relative="1" as="geometry">
            <mxPoint x="100" y="850" as="sourcePoint" />
            <mxPoint x="100" y="890" as="targetPoint" />
          </mxGeometry>
        </mxCell>
        <mxCell id="EdCFm5tl4cXeDCEJOOAf-28" value="FREELIST" style="text;html=1;align=center;verticalAlign=middle;whiteSpace=wrap;rounded=0;" parent="1" vertex="1">
          <mxGeometry x="70" y="810" width="60" height="30" as="geometry" />
        </mxCell>
        <mxCell id="EdCFm5tl4cXeDCEJOOAf-29" value="NULLPTR" style="text;html=1;align=center;verticalAlign=middle;whiteSpace=wrap;rounded=0;" parent="1" vertex="1">
          <mxGeometry x="70" y="890" width="60" height="30" as="geometry" />
        </mxCell>
        <mxCell id="EdCFm5tl4cXeDCEJOOAf-30" value="" style="shape=flexArrow;endArrow=classic;html=1;rounded=0;" parent="1" edge="1">
          <mxGeometry width="50" height="50" relative="1" as="geometry">
            <mxPoint x="150" y="870" as="sourcePoint" />
            <mxPoint x="250" y="870" as="targetPoint" />
          </mxGeometry>
        </mxCell>
        <mxCell id="EdCFm5tl4cXeDCEJOOAf-31" value="" style="endArrow=classic;html=1;rounded=0;exitX=0.5;exitY=1;exitDx=0;exitDy=0;" parent="1" source="EdCFm5tl4cXeDCEJOOAf-32" edge="1">
          <mxGeometry width="50" height="50" relative="1" as="geometry">
            <mxPoint x="300" y="840" as="sourcePoint" />
            <mxPoint x="300" y="880" as="targetPoint" />
          </mxGeometry>
        </mxCell>
        <mxCell id="EdCFm5tl4cXeDCEJOOAf-32" value="PTR" style="text;html=1;align=center;verticalAlign=middle;whiteSpace=wrap;rounded=0;" parent="1" vertex="1">
          <mxGeometry x="270" y="810" width="60" height="30" as="geometry" />
        </mxCell>
        <mxCell id="EdCFm5tl4cXeDCEJOOAf-33" value="重新申请大块内存" style="rounded=0;whiteSpace=wrap;html=1;" parent="1" vertex="1">
          <mxGeometry x="294" y="880" width="506" height="60" as="geometry" />
        </mxCell>
        <mxCell id="EdCFm5tl4cXeDCEJOOAf-34" value="定长内存池中，每个被分配出的块大小都一样" style="text;html=1;align=center;verticalAlign=middle;whiteSpace=wrap;rounded=0;" parent="1" vertex="1">
          <mxGeometry x="70" y="360" width="270" height="30" as="geometry" />
        </mxCell>
        <mxCell id="EdCFm5tl4cXeDCEJOOAf-35" value="" style="endArrow=classic;html=1;rounded=0;exitX=0.5;exitY=1;exitDx=0;exitDy=0;" parent="1" source="EdCFm5tl4cXeDCEJOOAf-36" edge="1">
          <mxGeometry width="50" height="50" relative="1" as="geometry">
            <mxPoint x="220" y="450" as="sourcePoint" />
            <mxPoint x="220" y="490" as="targetPoint" />
          </mxGeometry>
        </mxCell>
        <mxCell id="EdCFm5tl4cXeDCEJOOAf-36" value="PTR" style="text;html=1;align=center;verticalAlign=middle;whiteSpace=wrap;rounded=0;" parent="1" vertex="1">
          <mxGeometry x="190" y="410" width="60" height="30" as="geometry" />
        </mxCell>
        <mxCell id="EdCFm5tl4cXeDCEJOOAf-37" value="当自由链表为空，而且剩余大块内存的空间为0的时候，&lt;br&gt;就需要重新申请空间了" style="text;html=1;align=center;verticalAlign=middle;whiteSpace=wrap;rounded=0;" parent="1" vertex="1">
          <mxGeometry x="80" y="950" width="320" height="30" as="geometry" />
        </mxCell>
        <mxCell id="EdCFm5tl4cXeDCEJOOAf-38" value="size = 申请内存的大小" style="text;html=1;align=center;verticalAlign=middle;whiteSpace=wrap;rounded=0;" parent="1" vertex="1">
          <mxGeometry x="472" y="850" width="150" height="30" as="geometry" />
        </mxCell>
        <mxCell id="EdCFm5tl4cXeDCEJOOAf-39" value="&lt;span style=&quot;color: rgb(0, 0, 0); font-family: Helvetica; font-size: 12px; font-style: normal; font-variant-ligatures: normal; font-variant-caps: normal; font-weight: 400; letter-spacing: normal; orphans: 2; text-align: center; text-indent: 0px; text-transform: none; widows: 2; word-spacing: 0px; -webkit-text-stroke-width: 0px; background-color: rgb(251, 251, 251); text-decoration-thickness: initial; text-decoration-style: initial; text-decoration-color: initial; float: none; display: inline !important;&quot;&gt;size = 0&lt;/span&gt;" style="text;whiteSpace=wrap;html=1;" parent="1" vertex="1">
          <mxGeometry x="80" y="910" width="150" height="40" as="geometry" />
        </mxCell>
      </root>
    </mxGraphModel>
  </diagram>
</mxfile>
